# xmcd CD database file
#
# Track frame offsets:
#	183
#	59098
#	79708
#	112453
#	146663
#	185158
#	205113
#	238403
#
# Disc length: 3755 seconds
#
# Revision: 0
# Processed by: cddbd v1.5.1PL0 Copyright (c) Steve Scherf et al.
# Submitted via: CDex 1.51
#
DISCID=830ea908
DTITLE=Turk Mauro - Live in Paris
DYEAR=1987
DGENRE=Jazz
TTITLE0=Hey Jacques
TTITLE1=Laura Dear
TTITLE2=Muddy water
TTITLE3=Dirty blues
TTITLE4=Mimi
TTITLE5=Gee baby...
TTITLE6=Hi fly
TTITLE7=Blue'n boogie
EXTD=YEAR: 1987
EXTT0=
EXTT1=
EXTT2=
EXTT3=
EXTT4=
EXTT5=
EXTT6=
EXTT7=
PLAYORDER=
